<?xml version="1.0"?>
<svg width="103" height="55" xmlns="http://www.w3.org/2000/svg" xmlns:svg="http://www.w3.org/2000/svg" data-name="Layer 1">
 <defs>
  <style>.cls-1{fill:#3E8632;}</style>
 </defs>
 <g class="layer">
  <title>Layer 1</title>
  <path class="cls-1" d="m25.8,12.49a20.19,20.19 0 0 0 -15.15,6.85l-1.25,-1.25a5.5,5.5 0 1 0 -7.79,7.78l4.13,4.13a20.82,20.82 0 0 0 -0.2,2.75l0,16.74a5.51,5.51 0 0 0 11,0l0,-16.7a9.27,9.27 0 0 1 18.54,0l0,16.7a5.51,5.51 0 0 0 11,0l0,-16.7a20.29,20.29 0 0 0 -20.28,-20.3z" id="svg_1"/>
  <path class="cls-1" d="m60.75,21.36a5.5,5.5 0 0 0 -5.5,5.5l0,22.63a5.51,5.51 0 0 0 11,0l0,-22.63a5.51,5.51 0 0 0 -5.5,-5.5z" id="svg_2"/>
  <path class="cls-1" d="m97.46,22.05l-9.9,0l0,-7.44a5.51,5.51 0 1 0 -11,0l0,34.88a5.51,5.51 0 0 0 11,0l0,-16.43l9.9,0a5.51,5.51 0 0 0 0,-11l0,-0.01z" id="svg_3"/>
  <path class="cls-1" d="m60.75,0a6.48,6.48 0 1 0 0,13a6.74,6.74 0 0 0 1.27,-0.11a7.49,7.49 0 0 0 1.22,-0.38a6.37,6.37 0 0 0 1.12,-0.6a7.46,7.46 0 0 0 1,-0.79a6.49,6.49 0 0 0 -4.6,-11.08l-0.01,-0.04z" id="svg_4"/>
 </g>
</svg>